PathFileType	4	(X/Y/Z)	Kaydara	
DataRate	CameraRate	NumFrames	NumMarkers	Units	OrigDataRate	OrigDataStartFrame	OrigNumFrames	
120.00	120.00	4	72	mm	120.00	196	261	
Frame#	Time	Hips			RightUpLeg			RightLeg			RightFoot			RightFoot_End			LeftUpLeg			LeftLeg			LeftFoot			LeftFoot_End			Spine			Spine1			Spine2			Spine3			Neck			Head			Head_End			RightShoulder			RightArm			RightForeArm			RightHand			RightHandThumb1			RightHandThumb2			RightHandThumb3			RightHandThumb3_End			RightInHandIndex			RightHandIndex1			RightHandIndex2			RightHandIndex3			RightHandIndex3_End			RightInHandMiddle			RightHandMiddle1			RightHandMiddle2			RightHandMiddle3			RightHandMiddle3_End			RightInHandRing			RightHandRing1			RightHandRing2			RightHandRing3			RightHandRing3_End			RightInHandPinky			RightHandPinky1			RightHandPinky2			RightHandPinky3			RightHandPinky3_End			LeftShoulder			LeftArm			LeftForeArm			LeftHand			LeftHandThumb1			LeftHandThumb2			LeftHandThumb3			LeftHandThumb3_End			LeftInHandIndex			LeftHandIndex1			LeftHandIndex2			LeftHandIndex3			LeftHandIndex3_End			LeftInHandMiddle			LeftHandMiddle1			LeftHandMiddle2			LeftHandMiddle3			LeftHandMiddle3_End			LeftInHandRing			LeftHandRing1			LeftHandRing2			LeftHandRing3			LeftHandRing3_End			LeftInHandPinky			LeftHandPinky1			LeftHandPinky2			LeftHandPinky3			LeftHandPinky3_End			
		X1	Y1	Z1	X2	Y2	Z2	X3	Y3	Z3	X4	Y4	Z4	X5	Y5	Z5	X6	Y6	Z6	X7	Y7	Z7	X8	Y8	Z8	X9	Y9	Z9	X10	Y10	Z10	X11	Y11	Z11	X12	Y12	Z12	X13	Y13	Z13	X14	Y14	Z14	X15	Y15	Z15	X16	Y16	Z16	X17	Y17	Z17	X18	Y18	Z18	X19	Y19	Z19	X20	Y20	Z20	X21	Y21	Z21	X22	Y22	Z22	X23	Y23	Z23	X24	Y24	Z24	X25	Y25	Z25	X26	Y26	Z26	X27	Y27	Z27	X28	Y28	Z28	X29	Y29	Z29	X30	Y30	Z30	X31	Y31	Z31	X32	Y32	Z32	X33	Y33	Z33	X34	Y34	Z34	X35	Y35	Z35	X36	Y36	Z36	X37	Y37	Z37	X38	Y38	Z38	X39	Y39	Z39	X40	Y40	Z40	X41	Y41	Z41	X42	Y42	Z42	X43	Y43	Z43	X44	Y44	Z44	X45	Y45	Z45	X46	Y46	Z46	X47	Y47	Z47	X48	Y48	Z48	X49	Y49	Z49	X50	Y50	Z50	X51	Y51	Z51	X52	Y52	Z52	X53	Y53	Z53	X54	Y54	Z54	X55	Y55	Z55	X56	Y56	Z56	X57	Y57	Z57	X58	Y58	Z58	X59	Y59	Z59	X60	Y60	Z60	X61	Y61	Z61	X62	Y62	Z62	X63	Y63	Z63	X64	Y64	Z64	X65	Y65	Z65	X66	Y66	Z66	X67	Y67	Z67	X68	Y68	Z68	X69	Y69	Z69	X70	Y70	Z70	X71	Y71	Z71	X72	Y72	Z72	

196	1.625	4081.203	893.81699	129.612	4107.751209782623	865.4540339696075	77.9430622769389	4020.210673015357	460.06682993092153	47.69826195535896	4104.996362612762	118.72018085137033	-66.27724284916088	4026.203055901338	22.90337701049712	71.78417937745644	4065.4385920293325	895.460430629952	195.2580453337332	3959.1892854127113	504.96591909967856	299.4809190963672	3847.8892580118504	90.75513231057181	387.89710769027795	3705.708804564808	25.478537279440665	280.9738576144691	4036.9642073936466	1017.1376533907808	72.66575759788329	3985.2048965661384	1084.0139946229997	25.015852765568155	3926.7187774892936	1148.6556136499867	-26.077583426380794	3864.3523331196343	1202.3321264565766	-77.17659154758122	3796.5328291317005	1260.271600799445	-129.81350018817244	3729.485970094151	1309.6523812677015	-172.2819494026884	3590.159957122073	1386.4146287898477	-177.25725478142874	3824.409162576422	1234.9711094835595	-125.2473895908862	3839.970352375962	1209.3779931089	-160.72825933858508	3910.5020963758843	1080.0192577818593	-112.21576126165331	3910.4837594421197	1001.2516697505037	-92.99351566409189	3914.6192492705413	1010.4107518789286	-103.10130866230197	3909.7442712160605	1008.8742319279941	-110.19902906639484	3906.095326625816	1005.1598443270337	-113.14534001544925	3902.836058729978	999.8011460833839	-113.89355836733817	3914.996129399478	1002.0857494660427	-96.64773181417785	3917.0173080400577	992.1924186481584	-95.79682243109549	3913.5736464090005	983.6306015570531	-96.40057401338079	3908.8205087375873	980.3089450009736	-99.1247488387942	3903.124322607977	978.9094993223166	-102.9638992654012	3914.0043776319717	995.1581692318251	-91.30391745943055	3915.4407169971146	981.7618598084727	-87.58315388523462	3911.5395198105884	971.535129722078	-87.54111683223941	3905.7361801644856	967.1034355935939	-90.49142264787825	3899.4700448839158	965.3659523174815	-94.52865844240989	3913.3001146510874	990.5140724857355	-87.52486424130609	3914.11642303554	974.4703722484726	-80.83561601146216	3910.566685110767	964.6742333030305	-80.08877908363661	3904.8895362307294	959.930864685719	-82.55743382842914	3898.9601770133663	958.0751132029447	-86.17472955116266	3912.0518090396836	985.4656524971895	-83.39375719844237	3912.192629270818	967.6274714612495	-74.62622544286215	3909.1130712417535	958.4762890769755	-72.94955647150827	3904.857464160674	954.3843144699431	-74.22843477472799	3899.53902281774	952.376616371074	-77.13248988042653	3813.417513475453	1246.355306939346	-98.91738276532675	3801.9716197159582	1243.5343559299956	-51.54877802742536	3882.5137871080537	1111.2307451743648	-42.918567697725756	3936.5550739249843	1024.7061196472362	-36.50349257664716	3939.565452857704	1038.3214514257502	-46.58301444248239	3950.5346455307294	1039.7385157086276	-44.17763031314295	3959.0992851253704	1037.84734989901	-40.36065648125803	3967.0311631260724	1033.8087059581762	-35.34630385192837	3942.731633104624	1029.719249751003	-40.52449139786765	3957.460241557215	1024.6897567676988	-35.71642814543746	3969.9981129826833	1018.7032472972281	-28.659736825426755	3977.151956747795	1016.3512725284833	-24.353583405379617	3982.6408558190838	1015.3285350220561	-20.8440111868293	3944.845489887978	1021.9484032013015	-34.68994409345683	3960.3540655919364	1012.8402410864459	-26.84544963546969	3974.2693799734648	1005.2956316752127	-18.386303410546667	3983.012518637742	1001.972368438532	-12.826917842572335	3989.0729551882387	1000.6171983628226	-8.809770367935982	3945.948828264002	1016.5920776696357	-30.713251307655543	3960.7636847534027	1003.795562307344	-20.297436642394267	3973.107214657722	996.1994371298998	-12.160852843529746	3981.654784038151	992.4520987108081	-6.392893629472585	3987.4071980609233	990.9211569357709	-2.4236111264605604	3946.9060543146907	1010.5215288992893	-26.090202695164702	3961.0412146596946	995.0587785438784	-13.761477391234852	3971.1962078189786	987.4401994606552	-6.100022573034256	3977.5618113009946	983.9639149237071	-1.3385001747071001	3982.7328920255654	982.1801692117275	2.496671651155662
197	1.633	4081.203	893.81699	129.612	4106.437585817512	864.693499937104	77.66341500139961	4019.915199849123	459.11846364400833	46.42287189045003	4106.037074652047	118.37918694167905	-69.37885064454879	4028.8888831686654	22.58324430816077	69.91586263852344	4066.732317950199	896.2099817598289	195.5425960088113	3959.7632434711654	505.8231388588026	299.61335629043816	3848.756067560169	91.12137692162042	386.79646441031554	3706.658775928453	24.9998921104003	280.2672105112626	4037.203121745301	1017.1973723824024	72.52849543161116	3985.5126617876554	1084.1008213652872	24.84749565083278	3927.094613173541	1148.7879855345623	-26.25869175175544	3864.7727125905585	1202.5333412495088	-77.33536935051337	3797.015044337692	1260.5547412528977	-129.95719264277585	3730.0202019042486	1310.0459225033296	-172.42964889112937	3590.8172760952457	1386.998629429055	-177.28442516415842	3824.5303378213794	1234.7662353471605	-125.39715516566523	3838.3934874649385	1207.0205663392485	-160.31619492481008	3906.585021653544	1079.8830533836299	-107.59788551638196	3905.874092669312	1004.1106185609655	-82.30924154841162	3908.4775638503447	1013.0391643988568	-91.20347719998384	3902.988196278453	1012.1775603816692	-96.38556763004034	3899.1288797420143	1009.067747275109	-98.00255573328054	3895.880288559065	1004.3281696882325	-97.64661450266401	3909.4495781084065	1005.1266804799837	-84.70698120907575	3911.035925711656	996.2215140882881	-81.7302691372676	3907.5243791500316	988.6074926590998	-80.57960927298247	3902.714451207701	985.8315753774458	-82.22319367301037	3896.961419699978	984.8544932701674	-85.17476930796707	3909.075649503302	998.5430586534073	-79.4369268301708	3910.421982549311	986.2965472853718	-73.68269466856972	3906.5299330970206	977.1465555168398	-71.74253036233627	3900.6980146126534	973.393672106865	-73.39695710677711	3894.3890958027127	972.1282459069434	-76.46682537834602	3908.817927575931	994.1151869615774	-75.76663305463858	3909.938134400697	979.2850552041341	-67.35642651035978	3906.481587695091	970.469054176712	-64.97499669299155	3900.8221267146228	966.4025704059077	-66.2042009555971	3894.8739848526	965.001152424954	-68.91691529793479	3908.105137729094	989.2996792310315	-71.80355063334542	3908.851178628354	972.7132328874301	-61.568522398098	3905.9778749097327	964.4066047173291	-58.621344519709396	3901.7988434073545	960.8372294516184	-59.0147437292934	3896.500408860878	959.2486166863564	-61.128180718861586	3814.212103070452	1247.0887784531985	-99.04173070299362	3803.989319831451	1246.2755124543833	-51.629324610339424	3882.6598235326574	1113.1169605263633	-39.95902673960808	3940.4892667848835	1027.1386013734436	-37.0603872067138	3942.2043621040866	1040.121516964605	-47.14911728518732	3952.7754770166525	1041.1429959692916	-45.90062675893557	3961.271831482599	1039.0661644543006	-42.90791934844363	3969.3255230378522	1034.9495781727883	-38.59663755506278	3945.960089112067	1031.7797013208021	-41.04733286871206	3960.5609112724114	1026.5302515148715	-36.73615611413824	3973.226688839539	1020.4097481242395	-30.617102445524395	3980.4187910636465	1017.9288399616116	-27.16503555329848	3985.9115256689643	1016.7686065772172	-24.545294844797148	3948.656972839703	1024.261712172094	-35.27422591296295	3964.356207302521	1015.0757772413499	-27.947443764164383	3978.4887084781653	1007.4190548079276	-20.5186814642936	3987.3152490287002	1003.9566023362491	-15.993192399810654	3993.3979880056168	1002.4589427780111	-12.951369896264671	3950.1746192646183	1019.0899938780407	-31.322471834637003	3965.5174742920235	1006.3850531048562	-21.37534148842659	3978.129343755165	998.7261841479275	-14.143487332712322	3986.799334763408	994.8631595740809	-9.376331715860097	3992.5926094222036	993.2070422163847	-6.3257717887949205	3951.6198454860014	1013.2358320820216	-26.75937625248878	3966.5372013807046	997.9915771496386	-14.878221036271256	3977.0280844919325	990.3769161671414	-7.9496025148000875	3983.541522227849	986.8424497580945	-3.9221144406121695	3988.7824874106072	984.9628971982606	-0.9031105872616365
198	1.642	4081.203	893.81699	129.612	4104.929376550855	863.8542631861287	77.37672807537254	4019.4497239693483	458.0859418908535	45.02677249110294	4106.831720236133	117.98850468714328	-72.70340626026982	4031.485719047627	22.173219714137733	67.83115578714302	4068.220790418971	897.0386938386546	195.8342537352413	3960.362761044392	506.8327455653858	299.88578508025347	3849.658057390269	91.62608424306138	385.8078791239166	3707.646453045226	24.621059329363543	279.69191414272683	4037.4594088113345	1017.2522901393787	72.37304640404417	3985.839589717703	1084.1898181993918	24.669318728686687	3927.4899867114673	1148.9276146657692	-26.44343694773095	3865.21275350856	1202.738929535699	-77.49985547775746	3797.5219779196905	1260.8455433647403	-130.10861712617492	3730.604083823098	1310.4620898523606	-172.60266572933588	3591.5429550547724	1387.6312062596605	-177.36063151464532	3824.6618452155444	1234.5863691461493	-125.5244726523238	3836.8712823000747	1204.9443374237128	-159.7384641350166	3902.875574707796	1080.17634190878	-102.50000833335076	3902.5046881406242	1007.4136449764461	-71.60813261683788	3903.6739061828325	1016.4325096329826	-79.07645929744561	3897.898778908255	1016.4430254860941	-82.29366396434023	3894.0785240813284	1014.0389123935119	-82.59337023091214	3891.0661537121537	1009.9717852169888	-81.18295265066824	3905.3092932626273	1008.8377217471394	-72.67973381689136	3906.8535925005112	1001.1079039508695	-67.65976867262792	3903.624896336617	994.5423854987914	-64.83326177346082	3898.971474802136	992.3735640031687	-65.4125348722564	3893.3349354680463	991.8687846647285	-67.46804459522856	3905.5991582826273	1002.4916604547734	-67.60761467572047	3907.2634367541045	991.5199787784353	-59.967590791515306	3903.768145649932	983.5419340686738	-56.23117183291912	3898.16732850149	980.53483967685	-56.617106401323554	3892.0064292001857	979.792687633246	-58.71408203938259	3905.80985915288	998.2001675680028	-64.13180862373075	3907.6168884694066	984.6266400460935	-54.20771693454128	3904.595735647048	976.8585554442875	-50.29675301776279	3899.20675998801	973.5254873292234	-50.32156171318961	3893.4203355818063	972.6227332629364	-52.12859328397174	3905.6509414047237	993.5193293705781	-60.43233910916125	3907.362938546754	978.163921645637	-48.97904916090502	3904.9750486256057	970.7322111592441	-44.86996288681006	3901.059468509371	967.7151025229319	-44.41529078742697	3895.942364322204	966.5781880215245	-45.74394707300948	3815.043968276936	1247.8113260602113	-99.20332146625157	3806.1181177314943	1248.976081225284	-51.95361146534244	3883.0917173476882	1115.0751594719602	-37.144657666740926	3944.7855359688547	1029.4635171594746	-38.37031409758137	3945.2024260075173	1041.9208631361046	-48.38345535956066	3955.2744549174536	1042.535316828652	-48.3198790655276	3963.6331382721237	1040.2438799661631	-46.203030140748425	3971.751616977747	1036.0072837759853	-42.665271597614215	3949.561204336116	1033.7805994992175	-42.34402987580545	3964.0091516772904	1028.2784317751582	-38.68744315784669	3976.7301166780594	1021.966176061827	-33.62427894188435	3983.8861040445104	1019.3208627291011	-31.06611651811715	3989.3014431896727	1017.9940684677621	-29.346433317961566	3952.841962280336	1026.4579036365376	-36.71452672516551	3968.707858755551	1017.1311151308354	-30.103716142282032	3982.978320238648	1009.2917207450297	-23.84471428671693	3991.7985934635813	1005.6436690040462	-20.406122388039428	3997.8147824469306	1003.9699600158784	-18.35322625895147	3954.775717745724	1021.4311707661753	-32.84189014056153	3970.6282742921717	1008.727495604558	-23.588607777208956	3983.4395877854354	1000.9367812154085	-17.393219311495045	3992.1455914172852	996.9092670541629	-13.683436304603646	3997.8962228195824	995.0945061717047	-11.566968343236915	3956.707316789981	1015.747013971365	-28.395404239595194	3972.3909619834394	1000.6105277506666	-17.203836338988523	3983.162888817104	992.9329826271804	-11.128558969439181	3989.7612899863893	989.2991893837152	-7.883630452500851	3994.9982585911425	987.2909901453111	-5.698589380983165
199	1.65	4081.203	893.81699	129.612	4103.291766624316	862.9727014645122	77.09264604909028	4018.8338460759337	457.017595004409	43.58776048526021	4107.3939642425785	117.60212830398044	-76.15692437490051	4033.9450916517417	21.682173144486008	65.535875582996	4069.8397295687687	897.9110613913755	196.1237622427953	3960.99596136866	507.92995405985306	300.23872955812715	3850.6003504248943	92.2069793487316	384.86961365326107	3708.6503955825387	24.34538425483764	279.18139672031083	4037.7219833216755	1017.298297741406	72.20364116762323	3986.169196197554	1084.274414934394	24.48803473358344	3927.8824765942118	1149.065929018979	-26.620666420934217	3865.6437869363454	1202.9405520065363	-77.65059349906734	3798.01758161646	1261.1339298378732	-130.24026965257988	3731.1955911887358	1310.888254443585	-172.7664778269665	3592.2879002873065	1388.2903143521999	-177.44239553092393	3824.768118699663	1234.4220079274014	-125.60495201644986	3835.3506504778925	1203.1372115840393	-158.97345507834072	3899.5074840286766	1080.7572554826058	-97.13046223900378	3900.2799011573275	1010.8244408664746	-61.28884730178317	3900.1847862062345	1020.2341938203259	-67.18130628458411	3894.4750974456356	1021.2531651225315	-68.46989618857074	3890.9436642104124	1019.6074785051287	-67.52051566195372	3888.3801647878686	1016.2206418207662	-65.149203704816	3902.504108343612	1012.8405040886272	-61.01809748908087	3904.375683978105	1006.3795808724786	-54.11711390792304	3901.7595830830182	1000.8893987303555	-49.76189219009159	3897.474710592713	999.3504824286146	-49.33955234132179	3892.1349197771124	999.3410179062893	-50.53148321158947	3903.4624729927095	1006.6121036915309	-56.256672614032134	3905.8074497799216	996.9416508764195	-46.95007743050236	3903.068248345584	990.1486620180586	-41.5923490583133	3897.954120765861	987.9071150019184	-40.79234254629546	3892.1383605739484	987.7096437940969	-41.955330006255316	3904.1348656766854	1002.3700243878442	-53.0508439562482	3906.9461272002773	990.001652033523	-41.874761388653056	3904.672501070085	983.2763372597955	-36.601114314695444	3899.7999821368676	980.68694253267	-35.508784403933326	3894.360350219762	980.2988096759923	-36.450329116680486	3904.516334427006	997.7198803031987	-49.69756615234439	3907.475101675033	983.4846922355499	-37.31706792639879	3905.819534311271	976.8981471103266	-32.20095500697247	3902.3453495230247	974.428388599404	-30.972147997987662	3897.572676878293	973.7501723752276	-31.557552972128505	3815.881655250863	1248.5133835355073	-99.37674479189609	3808.33367114649	1251.6279841485043	-52.46481383787757	3883.75287335444	1117.065436430445	-34.44933931313379	3948.8181549542237	1031.5118142471272	-39.84886075190441	3948.0017861655224	1043.5684092440379	-49.708145085568866	3957.4867588925613	1043.78175413524	-50.788579477745884	3965.6331983052078	1041.2552647512773	-49.5462595573165	3973.742909106089	1036.860595719467	-46.804147017874115	3952.933941861808	1035.5587270339374	-43.825737087997666	3967.1812218027003	1029.7705626841014	-40.93004966459386	3979.859580683231	1023.213241729984	-36.97275251621027	3986.8977828459015	1020.3764214772259	-35.29602036087538	3992.1540488546193	1018.8647106889912	-34.4366969440417	3956.760967995355	1028.3642299805522	-38.408855773955565	3972.7265882050256	1018.8278458700557	-32.655046485666105	3987.0234099912996	1010.738821736958	-27.629072463241993	3995.7365380816304	1006.8682590686668	-25.266517944068575	4001.595666798067	1004.9963670601838	-24.161148752785394	3959.0860420424774	1023.4360683126209	-34.661827411239166	3975.3684249883877	1010.6321680807134	-26.270435539819847	3988.2770152642393	1002.6423775699011	-21.175354781573308	3996.9191265765926	998.4100591331396	-18.517088070166476	4002.5407799481404	996.4136114804071	-17.297975059128213	3961.4724245563166	1017.8682912405252	-30.3789695454879	3977.8314828052007	1002.7138826686709	-20.061621806038044	3988.7953469022823	994.9062209393516	-14.903641336657303	3995.402311724509	991.1372146338364	-12.443208868018695	4000.5567744448463	988.9762266107823	-11.06316003601262
